<?xml version="1.0" encoding="utf-8"?>
<!-- Generator: Adobe Illustrator 25.0.0, SVG Export Plug-In . SVG Version: 6.00 Build 0)  -->
<svg version="1.1" id="Layer_1" xmlns="http://www.w3.org/2000/svg" xmlns:xlink="http://www.w3.org/1999/xlink" x="0px" y="0px"
	 viewBox="0 0 55 55" style="enable-background:new 0 0 55 55;" xml:space="preserve">
<style type="text/css">
	.st0{fill:#FFFFFF;}
</style>
<g>
	<g>
		<path class="st0" d="M48.2,41.4L29.8,23.2c-0.1,0.1-0.1,0.3-0.2,0.4c-1.9,2.9-5.1,4.6-8.6,4.6c-2.5,0-4.9-0.9-6.8-2.6
			c-0.7,3.1,0.2,6.7,2.5,10.7c0.1,0.2,2.3,4.2,7,5.6v7.9h-3.8c-0.6,0-1,0.4-1,1s0.4,1,1,1h9.7c0.6,0,1-0.4,1-1s-0.4-1-1-1h-3.8v-7.5
			c0.5,0.1,1.1,0.1,1.7,0.1c1.7,0,3.6-0.3,5.5-1c2-0.7,4.2-0.9,6.1-0.4l8.3,2.1c0.1,0,0.2,0,0.2,0h0c0.5,0,1-0.4,1-1
			C48.6,41.9,48.4,41.6,48.2,41.4z"/>
	</g>
	<g>
		<path class="st0" d="M10.9,15.9l-4,2.3c-0.3,0.2-0.5,0.6-0.5,1s0.3,0.7,0.7,0.8l4.3,1.3c-0.4-1.1-0.6-2.3-0.6-3.5
			C10.7,17.2,10.8,16.6,10.9,15.9z"/>
	</g>
	<g>
		<path class="st0" d="M15.5,24.1c1.5,1.4,3.5,2.1,5.5,2.1c2.8,0,5.4-1.4,6.9-3.7c0.9-1.4,1.4-2.9,1.4-4.6c0-1.5-0.4-2.9-1.1-4.1
			h0.1c0.6,0,1-0.4,1-1s-0.4-1-1-1H27V9.3c0-1.5-0.6-2.9-1.8-4c-1.1-1-2.6-1.6-4.2-1.6c-3.3,0-6,2.5-6,5.5v2.4h-1.3
			c-0.6,0-1,0.4-1,1s0.4,1,1,1h0.1c-0.2,0.3-0.4,0.7-0.5,1c-0.4,1-0.6,2-0.6,3.1c0,1.4,0.3,2.8,1,4C14.2,22.7,14.8,23.4,15.5,24.1z
			 M18.4,17.1c-0.2,0.2-0.4,0.3-0.7,0.3c-0.3,0-0.5-0.1-0.7-0.3c-0.2-0.2-0.3-0.5-0.3-0.7c0-0.3,0.1-0.5,0.3-0.7
			c0.4-0.4,1-0.4,1.4,0c0.2,0.2,0.3,0.4,0.3,0.7C18.7,16.6,18.6,16.9,18.4,17.1z"/>
	</g>
</g>
</svg>
