<?xml version="1.0" encoding="utf-8"?>
<!-- Generator: Adobe Illustrator 25.0.0, SVG Export Plug-In . SVG Version: 6.00 Build 0)  -->
<svg version="1.1" id="Layer_1" xmlns="http://www.w3.org/2000/svg" xmlns:xlink="http://www.w3.org/1999/xlink" x="0px" y="0px"
	 viewBox="0 0 32 32.1" style="enable-background:new 0 0 32 32.1;" xml:space="preserve">
<style type="text/css">
	.st0{fill:#FFFFFF;}
</style>
<g>
	<path class="st0" d="M28.3,3.7c-1.6-1.6-4.3-1.6-5.9,0c0,0,0,0,0,0L11.5,14.6c-0.2,0.2-0.4,0.5-0.4,0.9l-0.6,4.4
		c-0.1,0.8,0.5,1.6,1.3,1.7c0.1,0,0.1,0,0.2,0h0.2l4.4-0.6c0.3,0,0.6-0.2,0.9-0.4L28.3,9.6C29.9,8,29.9,5.4,28.3,3.7
		C28.3,3.7,28.3,3.7,28.3,3.7z M15.7,18l-1.9,0.2l0.3-1.9l7.1-7.1l1.7,1.7L15.7,18z M26.1,7.5l-1.3,1.3l-1.7-1.7l1.3-1.3
		c0.5-0.5,1.2-0.5,1.7,0C26.6,6.3,26.6,7.1,26.1,7.5C26.2,7.5,26.2,7.5,26.1,7.5z M27.5,17v11c0,0.8-0.7,1.5-1.5,1.5H4
		c-0.8,0-1.5-0.7-1.5-1.5V6c0-0.8,0.7-1.5,1.5-1.5h11c0.8,0,1.5,0.7,1.5,1.5S15.8,7.5,15,7.5H5.5v19h19V17c0-0.8,0.7-1.5,1.5-1.5
		S27.5,16.2,27.5,17z"/>
</g>
</svg>
