<?xml version="1.0" standalone="no"?>
<!DOCTYPE svg PUBLIC "-//W3C//DTD SVG 20010904//EN"
 "http://www.w3.org/TR/2001/REC-SVG-20010904/DTD/svg10.dtd">
<svg version="1.0" xmlns="http://www.w3.org/2000/svg"
 width="593.000000pt" height="593.000000pt" viewBox="0 0 593.000000 593.000000"
 preserveAspectRatio="xMidYMid meet">
<metadata>
Created by potrace 1.16, written by Peter Selinger 2001-2019
</metadata>
<g transform="translate(0.000000,593.000000) scale(0.100000,-0.100000)"
fill="#000000" stroke="none">
<path d="M2781 5896 c-19 -23 -17 -48 14 -119 l28 -67 136 0 136 0 23 40 c23
41 29 85 12 95 -5 3 -62 15 -125 26 -63 11 -127 24 -141 29 -36 14 -70 12 -83
-4z"/>
<path d="M2725 5624 c-28 -29 -13 -71 33 -90 3 -1 -18 -35 -201 -331 -60 -97
-111 -192 -118 -218 -6 -25 -9 -75 -7 -109 10 -116 73 -206 182 -257 l61 -29
285 0 285 0 61 29 c186 88 244 297 130 471 -13 19 -56 89 -96 155 -41 66 -98
157 -126 203 -52 82 -52 84 -33 103 25 25 24 54 -3 73 -34 24 -429 23 -453 0z
m265 -319 c4 -25 11 -31 44 -36 48 -8 65 -29 47 -58 -7 -10 -31 -15 -82 -15
-55 -1 -74 -5 -82 -17 -18 -29 1 -48 88 -89 89 -43 115 -71 115 -125 0 -56
-62 -125 -112 -125 -12 0 -18 -8 -18 -24 0 -36 -10 -56 -29 -56 -24 0 -41 20
-41 46 0 19 -7 24 -45 29 -50 8 -68 24 -63 57 3 22 6 23 88 19 68 -2 88 0 99
12 21 27 9 61 -28 77 -115 52 -136 66 -154 102 -32 65 1 131 79 160 27 9 34
18 34 38 0 33 8 42 35 38 13 -2 22 -13 25 -33z"/>
<path d="M3910 5294 c-33 -6 -143 -44 -153 -53 -6 -6 35 -146 46 -157 2 -2 27
5 55 16 79 30 159 24 184 -14 21 -30 7 -73 -42 -131 -87 -105 -104 -141 -109
-222 l-3 -73 101 0 101 0 0 40 c0 59 21 101 88 173 74 80 93 115 99 187 13
144 -80 230 -257 236 -47 1 -96 0 -110 -2z"/>
<path d="M1605 4895 c-59 -13 -158 -47 -182 -63 -10 -6 -4 -34 23 -118 20 -60
38 -110 39 -112 1 -1 28 10 61 25 42 19 80 28 135 31 112 6 161 -25 161 -103
0 -44 -19 -78 -96 -165 -36 -41 -81 -104 -99 -140 -28 -56 -32 -77 -35 -157
l-4 -93 140 0 139 0 5 68 c6 88 30 131 128 239 107 118 134 174 139 281 4 101
-13 153 -69 211 -75 77 -179 111 -330 110 -52 0 -122 -7 -155 -14z"/>
<path d="M3925 4597 c-48 -23 -68 -52 -73 -110 -3 -43 0 -58 20 -87 47 -69
144 -76 205 -15 30 30 33 39 33 89 0 50 -4 61 -33 92 -26 29 -42 37 -77 40
-26 3 -58 -2 -75 -9z"/>
<path d="M2824 4386 c-144 -33 -254 -96 -357 -206 -76 -80 -126 -165 -159
-270 -19 -63 -23 -96 -22 -205 0 -112 4 -141 26 -208 37 -110 94 -201 180
-283 83 -81 170 -132 278 -166 62 -19 97 -23 200 -23 103 0 138 4 200 23 115
36 195 86 286 176 90 91 140 171 176 286 33 108 33 292 0 400 -36 115 -86 195
-176 286 -91 90 -154 130 -271 170 -98 33 -264 42 -361 20z"/>
<path d="M1700 3920 c-113 -22 -172 -122 -140 -239 40 -150 271 -177 340 -40
24 46 27 147 5 188 -36 70 -120 108 -205 91z"/>
<path d="M1093 3587 c-175 -65 -239 -293 -120 -432 21 -25 218 -162 521 -364
l486 -324 0 -846 0 -846 24 -50 c30 -65 104 -131 169 -150 76 -22 1518 -22
1594 0 65 19 139 85 169 150 l24 50 0 846 0 846 486 324 c303 202 500 339 521
364 119 139 55 367 -120 432 -43 15 -143 15 -187 -1 -19 -7 -252 -157 -517
-334 l-483 -322 -690 0 -690 0 -481 321 c-265 176 -499 327 -522 335 -47 17
-139 17 -184 1z"/>
</g>
</svg>
