<?xml version="1.0" encoding="utf-8"?>
<!-- Generator: Adobe Illustrator 25.0.0, SVG Export Plug-In . SVG Version: 6.00 Build 0)  -->
<svg version="1.1" xmlns="http://www.w3.org/2000/svg" xmlns:xlink="http://www.w3.org/1999/xlink" x="0px" y="0px"
	 viewBox="0 0 100 100" style="enable-background:new 0 0 100 100;" xml:space="preserve">
<style type="text/css">
	.st0{fill:#FFFFFF;}
</style>
<g id="Layer_2">
</g>
<g id="Layer_1">
	<g>
		<path class="st0" d="M5273.1,2399.6v-2c0-2.8-5-4-9.7-4s-9.7,1.3-9.7,4v2c0,1.8,0.7,3.6,2,4.9l5,4.9c0.3,0.3,0.4,0.6,0.4,1v6.4
			c0,0.4,0.2,0.7,0.6,0.8l2.9,0.9c0.5,0.1,1-0.2,1-0.8v-7.2c0-0.4,0.2-0.7,0.4-1l5.1-5C5272.4,2403.2,5273.1,2401.4,5273.1,2399.6z
			 M5263.4,2399.5c-4.8,0-7.4-1.3-7.5-1.8l0,0c0.1-0.5,2.7-1.8,7.5-1.8s7.3,1.3,7.5,1.8C5270.7,2398.2,5268.2,2399.5,5263.4,2399.5z
			"/>
		<path class="st0" d="M5268.4,2409.8c-0.6,0-1,0.4-1,1s0.4,1,1,1h4.3c0.6,0,1-0.4,1-1s-0.4-1-1-1H5268.4z"/>
		<path class="st0" d="M5272.7,2413.2h-4.3c-0.6,0-1,0.4-1,1s0.4,1,1,1h4.3c0.6,0,1-0.4,1-1
			C5273.7,2413.6,5273.3,2413.2,5272.7,2413.2z"/>
		<path class="st0" d="M5272.7,2416.5h-4.3c-0.6,0-1,0.4-1,1s0.4,1,1,1h4.3c0.6,0,1-0.4,1-1
			C5273.7,2417,5273.3,2416.5,5272.7,2416.5z"/>
	</g>
	<path class="st0" d="M95.8,13.3c-2.4-2.4-6.2-2.4-8.5,0L32.7,67.4L15.1,49.7C12.4,47,7.9,46.8,5,49.4c-3,2.7-3.3,7.4-0.6,10.4
		l22.2,25c0.2,0.2,0.4,0.4,0.6,0.6c3.3,3,8.4,2.7,11.4-0.6l0,0l57.3-63.2C98.1,19.2,98,15.6,95.8,13.3z"/>
</g>
</svg>
