<?xml version="1.0" standalone="no"?>
<!DOCTYPE svg PUBLIC "-//W3C//DTD SVG 20010904//EN"
 "http://www.w3.org/TR/2001/REC-SVG-20010904/DTD/svg10.dtd">
<svg version="1.0" xmlns="http://www.w3.org/2000/svg"
 width="700.000000pt" height="700.000000pt" viewBox="0 0 700.000000 700.000000"
 preserveAspectRatio="xMidYMid meet">
<metadata>
Created by potrace 1.14, written by Peter Selinger 2001-2017
</metadata>
<g transform="translate(0.000000,700.000000) scale(0.100000,-0.100000)"
fill="#000000" stroke="none">
<path d="M2565 6523 c-60 -11 -161 -36 -170 -43 -5 -4 -27 -13 -47 -19 -47
-16 -170 -97 -223 -147 -87 -83 -159 -199 -189 -304 -23 -82 -24 -99 -25 -300
l-1 -185 -94 -1 c-120 -2 -140 -7 -171 -48 -60 -79 -8 -206 85 -206 24 0 25
-8 5 -36 -19 -28 -53 -113 -76 -194 -63 -215 -54 -469 23 -670 12 -30 39 -89
61 -130 158 -298 399 -483 717 -553 215 -48 490 -10 695 95 503 258 715 886
470 1391 -18 37 -30 67 -26 68 81 9 125 53 129 129 3 46 -29 97 -72 115 -21 9
-66 14 -120 13 -48 0 -90 2 -93 6 -4 4 -8 98 -8 209 -2 227 -12 283 -71 403
-92 187 -280 334 -499 390 -64 16 -247 26 -300 17z m-239 -1508 c28 -18 54
-70 54 -107 0 -30 -33 -83 -64 -103 -54 -35 -142 -11 -172 47 -33 64 -14 129
49 169 37 23 93 21 133 -6z"/>
<path d="M1130 4829 c-135 -77 -257 -152 -272 -166 -29 -27 -48 -87 -41 -126
8 -40 53 -73 128 -95 68 -20 435 -131 484 -147 21 -6 23 -5 16 11 -11 28 -44
154 -50 194 -22 148 -29 412 -11 453 5 9 4 17 0 17 -5 0 -119 -64 -254 -141z"/>
<path d="M3780 4027 c0 -19 -96 -146 -160 -213 -189 -197 -406 -316 -680 -376
-101 -21 -372 -33 -433 -18 -18 4 -63 13 -102 20 -178 32 -388 132 -540 256
-36 29 -57 40 -60 32 -26 -77 -31 -356 -9 -483 8 -44 17 -94 20 -111 2 -17 20
-82 39 -144 89 -287 244 -600 394 -789 183 -232 445 -423 701 -512 l66 -22 -1
-501 0 -501 -257 -2 c-277 -2 -300 -6 -334 -58 -22 -34 -20 -112 4 -144 40
-55 23 -54 722 -54 529 0 652 3 675 14 43 21 66 59 67 112 1 60 -36 113 -86
122 -18 4 -143 7 -277 8 l-244 2 0 475 0 475 35 -4 c79 -11 342 -2 450 13 155
23 220 38 383 92 237 77 353 98 532 98 121 0 229 -12 300 -34 17 -5 122 -33
235 -61 113 -28 284 -71 380 -96 96 -24 184 -46 195 -49 11 -2 63 -15 115 -28
52 -14 107 -27 122 -30 95 -16 177 79 141 164 -9 21 -506 517 -1446 1443 -133
131 -396 391 -584 578 -187 186 -346 339 -352 339 -6 0 -11 -6 -11 -13z"/>
</g>
</svg>
